<svg width="32" height="32" viewBox="0 0 32 32" fill="none" xmlns="http://www.w3.org/2000/svg">
<path d="M13.6 15.2H14.1V14.7V12.2C14.1 10.9489 14.469 10.0341 15.0473 9.43468C15.6246 8.83643 16.4608 8.5 17.5 8.5C18.0358 8.5 18.5496 8.52438 18.9573 8.54908C19.0775 8.55637 19.1936 8.56411 19.3 8.57129V10.4H18.2C17.5008 10.4 16.9552 10.6085 16.6062 11.0543C16.2776 11.4743 16.2 12.0124 16.2 12.5V14.7V15.2H16.7H19.1313L18.8604 17.3H16.8H16.3V17.8V23.8H14.1V17.8V17.3H13.6H11.5V15.2H13.6Z" fill="#fff" stroke="#fff"/>
<circle cx="16" cy="16" r="15" stroke="#fff" stroke-width="2"/>
</svg>
