<svg width="32" height="32" viewBox="0 0 32 32" fill="none" xmlns="http://www.w3.org/2000/svg">
<path d="M21.0496 8.90608L21.0787 8.91857L21.1092 8.92727C21.52 9.04465 21.9698 9.356 22.3069 9.69309C22.6155 10.0017 22.8828 10.4578 23.0939 10.9504C23.2814 11.388 23.3524 11.9061 23.4275 12.7318C23.499 13.5908 23.5002 13.7889 23.4259 16.0206L23.4256 16.0289V16.0372C23.4256 18.201 23.4252 18.4747 23.3532 19.2664C23.2781 20.0931 23.2071 20.6117 23.0195 21.0496L23.0134 21.0638L23.0082 21.0783C22.6928 21.9614 21.9191 22.6894 20.9751 23.0939C20.5373 23.2816 20.0187 23.3525 19.1919 23.4276C18.4003 23.4996 18.1266 23.5 15.9628 23.5C13.799 23.5 13.5253 23.4996 12.7336 23.4276C11.9069 23.3525 11.3883 23.2816 10.9504 23.0939L10.9213 23.0814L10.8908 23.0727C10.48 22.9553 10.0302 22.644 9.69309 22.3069L9.33953 22.6605L9.69309 22.3069C9.38449 21.9983 9.11722 21.5422 8.90608 21.0496C8.71844 20.6117 8.64753 20.0931 8.57237 19.2664C8.5004 18.4747 8.5 18.201 8.5 16.0372C8.5 13.8012 8.50029 13.5988 8.57269 12.7299L8.57442 12.7092V12.6884C8.57442 11.9379 8.70934 11.4095 8.90608 10.9504L8.91857 10.9213L8.92727 10.8908C9.04465 10.48 9.356 10.0302 9.69309 9.69309C10.0302 9.356 10.48 9.04465 10.8908 8.92727L10.9213 8.91857L10.9504 8.90608C11.4095 8.70934 11.9379 8.57442 12.6884 8.57442H12.7092L12.7299 8.57269C13.5988 8.50029 13.8012 8.5 16.0372 8.5C18.1968 8.5 18.4008 8.50027 19.2682 8.57254C20.0939 8.64763 20.612 8.71858 21.0496 8.90608ZM20.8468 22.699L20.8655 22.6944L20.8837 22.6883C21.7253 22.4078 22.3316 21.686 22.6662 20.9391C22.8451 20.5792 23.0088 20.1354 23.0116 19.2602C23.0861 18.4354 23.0861 18.0997 23.086 15.9955V15.9628V15.9321C23.0861 13.8811 23.0861 13.5588 23.0096 12.7175C22.9458 12.0164 22.8252 11.5976 22.7468 11.3256C22.728 11.2603 22.7116 11.2034 22.699 11.1532C22.6036 10.7716 22.3416 10.3239 21.975 10.0255C21.675 9.65561 21.2926 9.47522 20.9303 9.32944C20.5688 9.1507 20.1205 8.98837 19.2372 8.98837H19.2324H19.2276H19.2229H19.2181H19.2134H19.2086H19.2039H19.1992H19.1945H19.1898H19.1851H19.1805H19.1758H19.1712H19.1665H19.1619H19.1573H19.1527H19.1481H19.1435H19.139H19.1344H19.1298H19.1253H19.1208H19.1162H19.1117H19.1072H19.1027H19.0982H19.0937H19.0893H19.0848H19.0803H19.0759H19.0715H19.067H19.0626H19.0582H19.0538H19.0494H19.045H19.0406H19.0362H19.0319H19.0275H19.0232H19.0188H19.0145H19.0101H19.0058H19.0015H18.9972H18.9929H18.9886H18.9843H18.98H18.9757H18.9714H18.9672H18.9629H18.9586H18.9544H18.9501H18.9459H18.9417H18.9374H18.9332H18.929H18.9248H18.9206H18.9164H18.9121H18.9079H18.9038H18.8996H18.8954H18.8912H18.887H18.8828H18.8787H18.8745H18.8703H18.8662H18.862H18.8579H18.8537H18.8496H18.8454H18.8413H18.8371H18.833H18.8289H18.8247H18.8206H18.8165H18.8124H18.8082H18.8041H18.8H18.7959H18.7917H18.7876H18.7835H18.7794H18.7753H18.7712H18.7671H18.763H18.7589H18.7547H18.7506H18.7465H18.7424H18.7383H18.7342H18.7301H18.726H18.7219H18.7178H18.7137H18.7096H18.7054H18.7013H18.6972H18.6931H18.689H18.6849H18.6808H18.6767H18.6725H18.6684H18.6643H18.6602H18.656H18.6519H18.6478H18.6437H18.6395H18.6354H18.6312H18.6271H18.623H18.6188H18.6147H18.6105H18.6063H18.6022H18.598H18.5939H18.5897H18.5855H18.5813H18.5772H18.573H18.5688H18.5646H18.5604H18.5562H18.552H18.5478H18.5436H18.5393H18.5351H18.5309H18.5266H18.5224H18.5182H18.5139H18.5096H18.5054H18.5011H18.4968H18.4926H18.4883H18.484H18.4797H18.4754H18.4711H18.4668H18.4624H18.4581H18.4538H18.4494H18.4451H18.4407H18.4363H18.432H18.4276H18.4232H18.4188H18.4144H18.41H18.4056H18.4011H18.3967H18.3922H18.3878H18.3833H18.3789H18.3744H18.3699H18.3654H18.3609H18.3564H18.3519H18.3473H18.3428H18.3382H18.3337H18.3291H18.3245H18.3199H18.3153H18.3107H18.3061H18.3015H18.2968H18.2922H18.2875H18.2828H18.2781H18.2734H18.2687H18.264H18.2593H18.2545H18.2498H18.245H18.2402H18.2355H18.2307H18.2259H18.221H18.2162H18.2113H18.2065H18.2016H18.1967H18.1918H18.1869H18.182H18.177H18.1721H18.1671H18.1622H18.1572H18.1522H18.1471H18.1421H18.1371H18.132H18.1269H18.1218H18.1167H18.1116H18.1065H18.1014H18.0962H18.091H18.0858H18.0806H18.0754H18.0702H18.0649H18.0597H18.0544H18.0491H18.0438H18.0384H18.0331H18.0277H18.0224H18.017H18.0115H18.0061H18.0007H17.9952H17.9897H17.9843H17.9787H17.9732H17.9677H17.9621H17.9565H17.9509H17.9453H17.9397H17.9341H17.9284H17.9227H17.917H17.9113H17.9055H17.8998H17.894H17.8882H17.8824H17.8766H17.8707H17.8648H17.859H17.853H17.8471H17.8412H17.8352H17.8292H17.8232H17.8172H17.8111H17.8051H17.799H17.7929H17.7868H17.7806H17.7744H17.7683H17.762H17.7558H17.7496H17.7433H17.737H17.7307H17.7243H17.718H17.7116H17.7052H17.6988H17.6923H17.6859H17.6794H17.6729H17.6663H17.6598H17.6532H17.6466H17.64H17.6333H17.6267H17.62H17.6133H17.6065H17.5998H17.593H17.5862H17.5793H17.5725H17.5656H17.5587H17.5518H17.5448H17.5378H17.5308H17.5238H17.5168H17.5097H17.5026H17.4955H17.4883H17.4811H17.4739H17.4667H17.4595H17.4522H17.4449H17.4376H17.4302H17.4228H17.4154H17.408H17.4005H17.3931H17.3855H17.378H17.3704H17.3629H17.3552H17.3476H17.3399H17.3322H17.3245H17.3168H17.309H17.3012H17.2933H17.2855H17.2776H17.2697H17.2617H17.2537H17.2457H17.2377H17.2296H17.2215H17.2134H17.2053H17.1971H17.1889H17.1807H17.1724H17.1641H17.1558H17.1474H17.1391H17.1306H17.1222H17.1137H17.1052H17.0967H17.0881H17.0796H17.0709H17.0623H17.0536H17.0449H17.0361H17.0274H17.0186H17.0097H17.0008H16.9919H16.983H16.9741H16.9651H16.956H16.947H16.9379H16.9288H16.9196H16.9104H16.9012H16.8919H16.8827H16.8733H16.864H16.8546H16.8452H16.8357H16.8263H16.8167H16.8072H16.7976H16.788H16.7783H16.7686H16.7589H16.7492H16.7394H16.7296H16.7197H16.7098H16.6999H16.6899H16.6799H16.6699H16.6599H16.6498H16.6396H16.6294H16.6192H16.609H16.5987H16.5884H16.5781H16.5677H16.5573H16.5468H16.5363H16.5258H16.5152H16.5046H16.494H16.4833H16.4726H16.4618H16.4511H16.4402H16.4294H16.4185H16.4075H16.3966H16.3856H16.3745H16.3634H16.3523H16.3411H16.3299H16.3187H16.3074H16.2961H16.2848H16.2734H16.2619H16.2505H16.2389H16.2274H16.2158H16.2042H16.1925H16.1808H16.1691H16.1573H16.1455H16.1336H16.1217H16.1097H16.0977H16.0857H16.0737H16.0615H16.0494H16.0372H16.0246H16.012H15.9995H15.987H15.9745H15.9621H15.9498H15.9375H15.9252H15.913H15.9008H15.8886H15.8765H15.8645H15.8524H15.8405H15.8285H15.8167H15.8048H15.793H15.7812H15.7695H15.7578H15.7462H15.7346H15.7231H15.7115H15.7001H15.6886H15.6773H15.6659H15.6546H15.6433H15.6321H15.6209H15.6098H15.5987H15.5876H15.5766H15.5656H15.5546H15.5437H15.5329H15.522H15.5112H15.5005H15.4898H15.4791H15.4685H15.4579H15.4473H15.4368H15.4263H15.4159H15.4055H15.3951H15.3848H15.3745H15.3642H15.354H15.3438H15.3337H15.3236H15.3135H15.3035H15.2935H15.2835H15.2736H15.2637H15.2539H15.2441H15.2343H15.2246H15.2148H15.2052H15.1955H15.1859H15.1764H15.1669H15.1574H15.1479H15.1385H15.1291H15.1197H15.1104H15.1011H15.0919H15.0827H15.0735H15.0643H15.0552H15.0461H15.0371H15.0281H15.0191H15.0102H15.0012H14.9924H14.9835H14.9747H14.9659H14.9572H14.9484H14.9398H14.9311H14.9225H14.9139H14.9053H14.8968H14.8883H14.8799H14.8714H14.863H14.8547H14.8463H14.838H14.8297H14.8215H14.8133H14.8051H14.7969H14.7888H14.7807H14.7727H14.7646H14.7566H14.7486H14.7407H14.7328H14.7249H14.717H14.7092H14.7014H14.6936H14.6859H14.6782H14.6705H14.6628H14.6552H14.6476H14.64H14.6325H14.625H14.6175H14.61H14.6026H14.5952H14.5878H14.5805H14.5731H14.5658H14.5586H14.5513H14.5441H14.5369H14.5297H14.5226H14.5155H14.5084H14.5013H14.4943H14.4873H14.4803H14.4733H14.4664H14.4595H14.4526H14.4457H14.4389H14.4321H14.4253H14.4185H14.4118H14.4051H14.3984H14.3917H14.3851H14.3785H14.3719H14.3653H14.3588H14.3522H14.3457H14.3392H14.3328H14.3264H14.3199H14.3136H14.3072H14.3008H14.2945H14.2882H14.2819H14.2757H14.2695H14.2632H14.2571H14.2509H14.2447H14.2386H14.2325H14.2264H14.2204H14.2143H14.2083H14.2023H14.1963H14.1903H14.1844H14.1785H14.1726H14.1667H14.1608H14.155H14.1492H14.1433H14.1376H14.1318H14.126H14.1203H14.1146H14.1089H14.1032H14.0976H14.0919H14.0863H14.0807H14.0751H14.0696H14.064H14.0585H14.053H14.0475H14.042H14.0365H14.0311H14.0257H14.0203H14.0149H14.0095H14.0041H13.9988H13.9935H13.9881H13.9828H13.9776H13.9723H13.967H13.9618H13.9566H13.9514H13.9462H13.941H13.9359H13.9307H13.9256H13.9205H13.9154H13.9103H13.9052H13.9001H13.8951H13.8901H13.885H13.88H13.8751H13.8701H13.8651H13.8602H13.8552H13.8503H13.8454H13.8405H13.8356H13.8307H13.8259H13.821H13.8162H13.8113H13.8065H13.8017H13.7969H13.7921H13.7874H13.7826H13.7779H13.7731H13.7684H13.7637H13.759H13.7543H13.7496H13.7449H13.7403H13.7356H13.731H13.7263H13.7217H13.7171H13.7125H13.7079H13.7033H13.6988H13.6942H13.6896H13.6851H13.6805H13.676H13.6715H13.667H13.6625H13.658H13.6535H13.649H13.6445H13.64H13.6356H13.6311H13.6267H13.6222H13.6178H13.6134H13.609H13.6046H13.6001H13.5957H13.5914H13.587H13.5826H13.5782H13.5738H13.5695H13.5651H13.5608H13.5564H13.5521H13.5478H13.5434H13.5391H13.5348H13.5305H13.5262H13.5218H13.5175H13.5132H13.509H13.5047H13.5004H13.4961H13.4918H13.4875H13.4833H13.479H13.4747H13.4705H13.4662H13.462H13.4577H13.4535H13.4492H13.445H13.4407H13.4365H13.4322H13.428H13.4238H13.4195H13.4153H13.4111H13.4068H13.4026H13.3984H13.3941H13.3899H13.3857H13.3815H13.3772H13.373H13.3688H13.3646H13.3603H13.3561H13.3519H13.3477H13.3435H13.3392H13.335H13.3308H13.3265H13.3223H13.3181H13.3139H13.3096H13.3054H13.3012H13.2969H13.2927H13.2884H13.2842H13.28H13.2757H13.2715H13.2672H13.263H13.2587H13.2544H13.2502H13.2459H13.2416H13.2374H13.2331H13.2288H13.2245H13.2202H13.2159H13.2116H13.2073H13.203H13.1987H13.1944H13.1901H13.1858H13.1815H13.1771H13.1728H13.1684H13.1641H13.1597H13.1554H13.151H13.1467H13.1423H13.1379H13.1335H13.1291H13.1247H13.1203H13.1159H13.1115H13.107H13.1026H13.0982H13.0937H13.0893H13.0848H13.0803H13.0759H13.0714H13.0669H13.0624H13.0579H13.0533H13.0488H13.0443H13.0397H13.0352H13.0306H13.0261H13.0215H13.0169H13.0123H13.0077H13.0031H12.9984H12.9938H12.9892H12.9845H12.9798H12.9752H12.9705H12.9658H12.9611H12.9564H12.9516H12.9469H12.9421H12.9374H12.9326H12.9278H12.923H12.9182H12.9134H12.9086H12.9037H12.8989H12.894H12.8891H12.8842H12.8793H12.8744H12.8695H12.8645H12.8596H12.8546H12.8496H12.8446H12.8396H12.8346H12.8296H12.8245H12.8194H12.8144H12.8093H12.8042H12.7991H12.7939H12.7888H12.7836H12.7784H12.7732H12.768H12.7628H12.7401L12.7175 8.99043C12.0164 9.05416 11.5976 9.17484 11.3256 9.2532C11.2603 9.27203 11.2034 9.28841 11.1532 9.30098L11.0999 9.31429L11.0508 9.33883C11.0205 9.35397 10.985 9.37112 10.946 9.38997C10.8287 9.44665 10.6796 9.51862 10.5465 9.59694C10.3752 9.69769 10.1843 9.8331 10.0253 10.0257C9.6513 10.3357 9.46821 10.7955 9.3398 11.118C9.33624 11.127 9.33273 11.1358 9.32926 11.1445C9.15215 11.5027 8.99121 11.9464 8.98841 12.8142C8.91395 13.6377 8.91395 13.9003 8.91395 16.0064V16.0372C8.91395 17.0859 8.9327 17.6884 8.95161 18.1329C8.95607 18.2375 8.96045 18.332 8.96454 18.4204C8.97798 18.7101 8.98837 18.9343 8.98837 19.2372V19.2599L8.99043 19.2825C9.05416 19.9836 9.17484 20.4024 9.2532 20.6744C9.27203 20.7397 9.28841 20.7966 9.30098 20.8468L9.31429 20.9001L9.33883 20.9492C9.35397 20.9795 9.37112 21.015 9.38996 21.054C9.44664 21.1713 9.51862 21.3204 9.59694 21.4535C9.69747 21.6244 9.83251 21.8148 10.0244 21.9737C10.3138 22.3298 10.745 22.5858 11.1826 22.6894C11.5345 22.859 11.9769 23.0089 12.8142 23.0116C13.6377 23.086 13.9003 23.086 16.0066 23.086H16.0372H16.0679C18.1189 23.086 18.4412 23.086 19.2825 23.0096C19.9836 22.9458 20.4024 22.8252 20.6744 22.7468C20.7397 22.728 20.7966 22.7116 20.8468 22.699Z" fill="#fff" stroke="#fff"/>
<path d="M19.2157 15.9876L19.2163 15.9751V15.9627C19.2163 14.1981 17.8018 12.7836 16.0372 12.7836C14.2727 12.7836 12.8582 14.1981 12.8582 15.9627C12.8582 17.7272 14.2727 19.1417 16.0372 19.1417C17.7403 19.1417 19.1291 17.7188 19.2157 15.9876ZM12.4442 15.9627C12.4442 14.0062 14.0808 12.3696 16.0372 12.3696C17.9937 12.3696 19.6303 14.0062 19.6303 15.9627C19.6303 17.9191 17.9937 19.5557 16.0372 19.5557C14.0808 19.5557 12.4442 17.9191 12.4442 15.9627Z" fill="#fff" stroke="#fff"/>
<path d="M20.7465 11.7208C20.7465 11.9656 20.5239 12.1882 20.2791 12.1882C20.0343 12.1882 19.8116 11.9656 19.8116 11.7208C19.8116 11.476 20.0343 11.2534 20.2791 11.2534C20.5239 11.2534 20.7465 11.476 20.7465 11.7208Z" fill="#fff" stroke="#fff"/>
<circle cx="16" cy="16" r="15" stroke="#fff" stroke-width="2"/>
</svg>
